<svg xmlns="http://www.w3.org/2000/svg" viewBox="0 0 511.997 511.997">
  <path fill="#a5dc69" d="M233.13 157.639h52.667v31.692H233.13z"/>
  <path d="M170.5 80.498h-31c-11.046 0-20 8.954-20 20s8.954 20 20 20h71c0-22.092-17.909-40-40-40z" fill="#7d9bff"/>
  <g fill="#c8f5ff">
    <circle cx="402.25" cy="331.749" r="99.75"/>
    <circle cx="109.75" cy="331.749" r="99.75"/>
  </g>
  <path d="M177.878 331.747H67.499c-15.74 0-28.499-12.76-28.499-28.499v-82.666c0-17.26 13.992-31.251 31.251-31.251h104.875c17.26 0 31.251 13.992 31.251 31.251v82.666c0 15.739-12.759 28.499-28.499 28.499z" fill="#f5b955"/>
  <path d="M175.126 189.331H70.251c-17.26 0-31.251 13.992-31.251 31.251v14.09c0 11.05 8.958 20.008 20.008 20.008h127.361c11.05 0 20.008-8.958 20.008-20.008v-14.09c0-17.259-13.992-31.251-31.251-31.251z" fill="#ff9155"/>
  <path d="M466.108 268.681a9.971 9.971 0 0 0 7.118 2.976c2.537 0 5.075-.96 7.023-2.882 3.931-3.88 3.973-10.211.094-14.143l-.477-.48c-3.899-3.911-10.231-3.923-14.142-.023-3.912 3.899-3.922 10.23-.023 14.143l.407.409z"/>
  <path d="M501.179 284.164c-2.394-4.976-8.367-7.07-13.346-4.677-4.977 2.394-7.071 8.369-4.677 13.346 16.499 34.304 9.489 75.445-17.443 102.377-16.952 16.952-39.49 26.288-63.463 26.288-23.974 0-46.512-9.336-63.464-26.288-34.994-34.994-34.994-91.933 0-126.927a90.905 90.905 0 0 1 18.929-14.53l35.352 81.955a10.004 10.004 0 0 0 9.187 6.042 9.98 9.98 0 0 0 3.956-.82c5.071-2.188 7.409-8.072 5.221-13.144l-35.374-82.006c20.057-6.149 42.065-5.121 62.325 3.781 5.057 2.224 10.956-.077 13.177-5.133 2.222-5.057-.077-10.956-5.133-13.178-20.016-8.794-42.013-11.396-63.613-7.529a109.91 109.91 0 0 0-14.675 3.701l-50.436-116.924h56.286a13.242 13.242 0 0 1 12.242 8.143l.244.583c1.746 4.169 1.311 8.718-1.193 12.48-2.503 3.763-6.532 5.921-11.051 5.921-5.523 0-10 4.478-10 10s4.477 10 10 10a33.2 33.2 0 0 0 27.702-14.842 33.199 33.199 0 0 0 2.991-31.28l-.244-.584a33.195 33.195 0 0 0-30.691-20.421h-71.49a10 10 0 0 0-9.182 13.961l18.626 43.18H188l-7.615-17.141H210.5c5.523 0 10-4.478 10-10 0-27.57-22.43-50-50-50h-31c-16.542 0-30 13.458-30 30s13.458 30 30 30h19l10.884 24.499-10.869 24.334H70.251C47.505 179.331 29 197.836 29 220.582v36.846c-18.729 20.313-29 46.538-29 74.319 0 37.05 18.457 69.868 46.657 89.751H10c-5.523 0-10 4.478-10 10s4.477 10 10 10h99.751c43.192 0 82.521-25.474 100.194-64.897 2.259-5.04.005-10.957-5.034-13.216-5.042-2.262-10.957-.005-13.216 5.034-14.455 32.244-46.62 53.079-81.944 53.079-49.489 0-89.751-40.262-89.751-89.751 0-13.815 3.123-27.153 9-39.228v10.729c0 21.229 17.271 38.499 38.499 38.499h183.259l12.545 25.751h-6.682c-5.523 0-10 4.478-10 10s4.477 10 10 10h22.677a9.999 9.999 0 0 0 8.99-14.38l-20.351-41.776 59.193-148.491 22.64 52.487a109.89 109.89 0 0 0-25.128 18.803c-42.792 42.792-42.792 112.42 0 155.212a111.19 111.19 0 0 0 14.394 12.146h-65.91c-5.523 0-10 4.478-10 10s4.477 10 10 10h129.122c29.315 0 56.876-11.416 77.605-32.146 32.933-32.931 41.502-83.241 21.326-125.189zM129.5 100.498c0-5.514 4.486-10 10-10h31c13.038 0 24.159 8.359 28.287 20H139.5c-5.514 0-10-4.486-10-10zm146.293 67.14v11.692h-32.667v-11.692h32.667zm-52.666 0v21.692c0 5.522 4.477 10 10 10h52.667c5.523 0 10-4.478 10-10v-21.692h15.87l-54.975 137.909-37.991-88.896a10.167 10.167 0 0 0-.428-.877l-21.385-48.136h26.242zm-6.75 135.61v-41.134l25.485 59.633H211.63a38.259 38.259 0 0 0 4.747-18.499zm-36.03-123.575l-.076-.01.036-.081.04.091zM49 220.582c0-11.718 9.533-21.251 21.251-21.251h104.875c11.718 0 21.251 9.533 21.251 21.251v11.627c0 6.877-5.595 12.472-12.472 12.472h-21.819c-.661-4.882-4.834-8.649-9.898-8.649s-9.237 3.767-9.898 8.649h-39.204c-.661-4.882-4.834-8.649-9.898-8.649s-9.237 3.767-9.898 8.649H61.472c-6.877 0-12.472-5.595-12.472-12.472v-11.627zm127.627 101.165H67.499c-10.2 0-18.499-8.299-18.499-18.499v-41.062a32.3 32.3 0 0 0 12.472 2.494h21.725c.087 5.448 4.523 9.84 9.992 9.84s9.905-4.392 9.992-9.84h39.016c.087 5.448 4.523 9.84 9.992 9.84s9.905-4.392 9.992-9.84h21.725c4.417 0 8.629-.89 12.472-2.494v41.062c0 10.2-8.298 18.499-18.499 18.499h-1.252z"/>
  <path d="M226.797 421.498c-2.64 0-5.21 1.069-7.07 2.93-1.87 1.86-2.93 4.44-2.93 7.07s1.06 5.21 2.93 7.069c1.86 1.86 4.44 2.931 7.07 2.931s5.2-1.07 7.07-2.931c1.86-1.859 2.93-4.439 2.93-7.069s-1.07-5.21-2.93-7.07a10.09 10.09 0 0 0-7.07-2.93z"/>
</svg>
