<svg xmlns="http://www.w3.org/2000/svg" viewBox="0 0 512 512">
  <path d="M173.192 184.768h64.392l-14.008-35.697h-50.384c-12.577 0-21.209 12.66-16.615 24.368a17.849 17.849 0 0 0 16.615 11.329z" fill="#6e87f5"/>
  <g fill="#c8f5ff">
    <circle cx="153.02" cy="320.98" r="89.02"/>
    <circle cx="412.98" cy="320.98" r="89.02"/>
  </g>
  <path d="M412.976 221.951a98.777 98.777 0 0 0-26.699 3.66L341.669 112h45.646a13.544 13.544 0 0 1 12.79 9.105c1.452 4.191.81 8.667-1.763 12.281-2.572 3.614-6.592 5.686-11.027 5.686h-3.356c-5.523 0-10 4.477-10 10s4.477 10 10 10h3.356a33.597 33.597 0 0 0 27.321-14.087 33.597 33.597 0 0 0 4.368-30.426C414.329 101.065 401.595 92 387.315 92H327a10.002 10.002 0 0 0-9.308 13.655l27.136 69.113h-99.491l-12.452-29.349a10 10 0 0 0-9.309-6.347h-50.384c-9.216 0-17.817 4.546-23.009 12.16s-6.281 17.282-2.915 25.86c4.213 10.738 14.389 17.676 25.924 17.676h41.151l-20.722 35.892c-12.395-5.593-26.138-8.709-40.596-8.709-51.227 0-93.493 39.101-98.522 89.024H33.065c-5.523 0-10 4.477-10 10s4.477 10 10 10h21.437c2.834 28.133 17.495 52.826 38.918 69.024H49c-5.523 0-10 4.477-10 10s4.477 10 10 10h104.024c51.227 0 93.493-39.101 98.522-89.024h18.008c4.245 13.308 16.724 22.976 31.421 22.976 6.245 0 12.09-1.745 17.074-4.774 6.099 20.493 18.664 38.226 35.323 50.823h-52.396c-5.523 0-10 4.477-10 10s4.477 10 10 10h112C467.578 420 512 375.578 512 320.976s-44.422-99.025-99.024-99.025zm-60.296-27.183l14.988 38.173c-23.72 12.257-41.877 33.823-49.618 59.833A32.78 32.78 0 0 0 300.976 288a9.946 9.946 0 0 0-5.431 1.611l-41.464-94.843h98.599zm-186.794-24.98c-.963-2.454-.664-5.111.822-7.289 1.485-2.178 3.849-3.427 6.484-3.427h43.565l6.16 15.696h-49.725a7.803 7.803 0 0 1-7.306-4.98zm68.601 30.09l48.57 111.098h-31.511c-2.909-28.873-18.275-54.121-40.624-70.283l23.565-40.815zm-64.142 111.098l30.512-52.848c16.433 12.537 27.81 31.359 30.537 52.848h-61.049zM153.024 400C109.45 400 74 364.55 74 320.976s35.45-79.024 79.024-79.024a78.588 78.588 0 0 1 30.532 6.141l-39.192 67.883a9.999 9.999 0 1 0 8.66 15h39.444c-4.469 17.617-20.457 30.691-39.444 30.691-5.523 0-10 4.477-10 10s4.477 10 10 10c30.058 0 55.069-21.969 59.853-50.691h18.517C226.46 369.843 193.209 400 153.024 400zm147.952-66.049a12.916 12.916 0 0 1-8.259-2.976h5.626a10 10 0 0 0 9.162-14.005l-3.792-8.673c5.843 1.261 10.238 6.464 10.238 12.679 0 7.154-5.821 12.975-12.975 12.975zm112 66.049c-43.574 0-79.024-35.45-79.024-79.024 0-29.829 16.616-55.844 41.075-69.293l28.641 72.948a10.002 10.002 0 0 0 9.311 6.348 9.978 9.978 0 0 0 3.652-.695c5.141-2.018 7.672-7.822 5.653-12.963l-28.649-72.967a78.882 78.882 0 0 1 19.341-2.403c43.574 0 79.024 35.45 79.024 79.024S456.55 400 412.976 400zM10 400c-2.63 0-5.21 1.07-7.07 2.93C1.07 404.79 0 407.37 0 410s1.07 5.21 2.93 7.07C4.79 418.93 7.37 420 10 420s5.21-1.07 7.07-2.93S20 412.63 20 410s-1.07-5.21-2.93-7.07A10.076 10.076 0 0 0 10 400z"/>
  <path d="M80.685 194.768h46.31c5.523 0 10-4.477 10-10s-4.477-10-10-10h-46.31c-5.523 0-10 4.477-10 10s4.477 10 10 10zm-50.352 0h10.982c5.523 0 10-4.477 10-10s-4.477-10-10-10H30.333c-5.523 0-10 4.477-10 10s4.478 10 10 10zM10 239h65.168c5.523 0 10-4.477 10-10s-4.477-10-10-10H10c-5.523 0-10 4.477-10 10s4.477 10 10 10zm448.559 106.318c-4.274-3.498-10.574-2.868-14.072 1.405-7.771 9.497-19.257 14.943-31.511 14.943-5.523 0-10 4.477-10 10s4.477 10 10 10c18.276 0 35.402-8.119 46.988-22.276 3.498-4.274 2.869-10.574-1.405-14.072zm5.108-34.342c-5.523 0-10 4.477-10 10v.17c-.035 5.523 4.415 10.028 9.937 10.063h.064c5.493 0 9.964-4.436 9.999-9.937v-.296c0-5.523-4.478-10-10-10z"/>
</svg>
