<svg xmlns="http://www.w3.org/2000/svg" viewBox="0 0 512 512">
  <path d="M93.018 502.002c-45.759 0-82.985-37.226-82.985-82.985s37.226-82.985 82.985-82.985 82.985 37.226 82.985 82.985-37.227 82.985-82.985 82.985z" fill="#aae6ff"/>
  <path d="M93.018 369.27c6.27 9.688 18.474 13.653 29.241 9.501-.623 11.523 6.92 21.904 18.072 24.873-7.277 8.956-7.277 21.788 0 30.745-11.152 2.969-18.694 13.351-18.072 24.873-10.767-4.153-22.971-.188-29.241 9.501-6.27-9.688-18.474-13.653-29.241-9.501.623-11.523-6.92-21.904-18.072-24.873 7.277-8.956 7.277-21.788 0-30.745 11.152-2.968 18.694-13.351 18.072-24.873 10.768 4.153 22.972.187 29.241-9.501z" fill="#7d9bff"/>
  <circle cx="378.97" cy="133.065" r="122.977" fill="#aae6ff"/>
  <path d="M378.965 44.419c5.979 12.386 22.25 15.427 32.299 6.038 1.101 13.708 15.174 22.423 27.937 17.298-3.926 13.181 6.05 26.39 19.801 26.222-8.422 10.873-3.892 26.794 8.992 31.604-11.781 7.096-13.309 23.579-3.031 32.718-13.548 2.361-20.927 17.179-14.646 29.414-13.487-2.692-25.72 8.458-24.282 22.137-11.603-7.383-27.039-1.404-30.639 11.87-8.152-11.076-24.705-11.076-32.859 0-3.601-13.274-19.036-19.253-30.639-11.87 1.437-13.677-10.796-24.829-24.283-22.137 6.281-12.235-1.098-27.053-14.646-29.414 10.277-9.14 8.749-25.622-3.031-32.718 12.885-4.81 17.415-20.732 8.992-31.604 13.752.169 23.728-13.041 19.801-26.222 12.763 5.125 26.836-3.589 27.937-17.298 10.047 9.39 26.319 6.348 32.297-6.038z" fill="#7d9bff"/>
  <path d="M378.965 176.062c-23.706 0-42.992-19.286-42.992-42.992s19.286-42.992 42.992-42.992 42.992 19.286 42.992 42.992-19.287 42.992-42.992 42.992z" fill="#fff"/>
  <path d="M378.965 80.08c-29.22 0-52.99 23.772-52.99 52.99s23.771 52.99 52.99 52.99c29.22 0 52.99-23.772 52.99-52.99s-23.771-52.99-52.99-52.99zm0 85.984c-18.193 0-32.994-14.801-32.994-32.994s14.801-32.994 32.994-32.994c18.193 0 32.994 14.801 32.994 32.994s-14.801 32.994-32.994 32.994zm-220.609 52.6c2.63 0 5.209-1.07 7.069-2.929 1.859-1.87 2.929-4.439 2.929-7.069s-1.07-5.209-2.929-7.079c-1.86-1.86-4.439-2.919-7.069-2.919s-5.209 1.06-7.069 2.919a10.082 10.082 0 0 0-2.929 7.079c0 2.63 1.07 5.209 2.929 7.069a10.077 10.077 0 0 0 7.069 2.929z"/>
  <path d="M435.475 58.478a10.303 10.303 0 0 1-9.352-.809 10.304 10.304 0 0 1-4.893-8.012 9.993 9.993 0 0 0-6.354-8.522 9.991 9.991 0 0 0-10.437 2.018c-2.442 2.283-5.728 3.236-9.014 2.625a10.304 10.304 0 0 1-7.456-5.703 10 10 0 0 0-18.008 0 10.302 10.302 0 0 1-7.456 5.703 10.3 10.3 0 0 1-9.013-2.625 9.997 9.997 0 0 0-16.791 6.504 10.307 10.307 0 0 1-4.894 8.012 10.294 10.294 0 0 1-9.352.809 9.996 9.996 0 0 0-13.308 12.133 10.3 10.3 0 0 1-1.668 9.237 10.298 10.298 0 0 1-8.296 4.133l-.257-.001a9.999 9.999 0 0 0-7.902 16.121 10.306 10.306 0 0 1 1.782 9.217 10.304 10.304 0 0 1-6.366 6.897 10 10 0 0 0-1.663 17.931 10.305 10.305 0 0 1 4.991 7.952 10.302 10.302 0 0 1-3.444 8.732 10 10 0 0 0 4.928 17.321 10.305 10.305 0 0 1 7.525 5.611 10.298 10.298 0 0 1-.058 9.387 9.997 9.997 0 0 0 10.852 14.37 10.302 10.302 0 0 1 9.044 2.514 10.303 10.303 0 0 1 3.338 8.774 10 10 0 0 0 15.311 9.48 10.307 10.307 0 0 1 9.341-.924 10.305 10.305 0 0 1 6.281 6.976 9.998 9.998 0 0 0 17.702 3.309 10.305 10.305 0 0 1 8.377-4.235c3.342 0 6.396 1.544 8.377 4.235a9.997 9.997 0 0 0 9.891 3.901 9.997 9.997 0 0 0 7.812-7.21 10.305 10.305 0 0 1 6.281-6.976 10.307 10.307 0 0 1 9.342.924 9.999 9.999 0 0 0 15.311-9.48 10.299 10.299 0 0 1 3.337-8.773 10.306 10.306 0 0 1 9.044-2.514 10 10 0 0 0 10.852-14.37 10.301 10.301 0 0 1-.058-9.387 10.3 10.3 0 0 1 7.526-5.611 9.996 9.996 0 0 0 7.9-7.114 9.995 9.995 0 0 0-2.972-10.207 10.297 10.297 0 0 1-3.444-8.731 10.31 10.31 0 0 1 4.991-7.952 10 10 0 0 0-1.663-17.931 10.303 10.303 0 0 1-6.366-6.898 10.301 10.301 0 0 1 1.781-9.216 9.998 9.998 0 0 0-7.902-16.121l-.124.001c-3.333.049-6.414-1.466-8.428-4.132a10.306 10.306 0 0 1-1.669-9.238 9.997 9.997 0 0 0-2.846-10.242 9.991 9.991 0 0 0-10.463-1.893zm10.418 56.31c1.322 4.648 3.65 8.795 6.774 12.214-2.443 3.934-3.969 8.438-4.415 13.251-.445 4.812.228 9.519 1.905 13.834-3.698 2.785-6.749 6.435-8.902 10.76-2.154 4.326-3.228 8.959-3.222 13.589-4.455 1.262-8.617 3.562-12.189 6.818-3.57 3.255-6.246 7.188-7.913 11.507-4.61-.433-9.323.208-13.828 1.955-4.507 1.746-8.421 4.446-11.536 7.872-4.142-2.069-8.768-3.173-13.601-3.173s-9.459 1.104-13.602 3.173c-3.114-3.425-7.029-6.126-11.535-7.873-4.508-1.746-9.221-2.388-13.828-1.955-1.668-4.319-4.343-8.252-7.915-11.508-3.571-3.255-7.734-5.556-12.188-6.818.006-4.63-1.067-9.263-3.222-13.589-2.154-4.326-5.204-7.975-8.901-10.76 1.678-4.315 2.351-9.023 1.904-13.835-.445-4.812-1.973-9.316-4.414-13.25 3.123-3.417 5.451-7.565 6.774-12.213 1.322-4.648 1.526-9.4.67-13.95 4.146-2.06 7.816-5.085 10.728-8.941 2.913-3.856 4.818-8.213 5.664-12.766 4.609-.422 9.125-1.918 13.233-4.461 4.109-2.544 7.462-5.919 9.894-9.858 4.453 1.273 9.202 1.509 13.952.62 4.75-.888 9.094-2.823 12.786-5.618 3.691 2.794 8.035 4.73 12.786 5.618 4.749.887 9.501.652 13.952-.62 2.434 3.939 5.784 7.313 9.893 9.857 4.108 2.544 8.623 4.04 13.234 4.462.846 4.553 2.752 8.909 5.665 12.767 2.912 3.856 6.581 6.882 10.727 8.94-.857 4.552-.653 9.303.67 13.951z"/>
  <path d="M497.112 71.975c-2.538-4.904-8.568-6.825-13.475-4.285-4.904 2.538-6.823 8.57-4.285 13.475 22.7 43.871 14.462 96.835-20.498 131.795a114.52 114.52 0 0 1-13.022 11.204c-.099.065-.192.14-.289.209-19.213 14.073-42.31 21.679-66.578 21.679-30.178 0-58.549-11.752-79.887-33.091-21.34-21.339-33.092-49.711-33.092-79.888 0-24.448 7.715-47.709 21.991-67.009l.049-.061c.096-.118.177-.242.267-.363a114.525 114.525 0 0 1 10.785-12.457c34.701-34.702 87.381-43.084 131.09-20.859 4.919 2.501 10.94.542 13.444-4.381 2.503-4.922.541-10.941-4.381-13.444C387.784-11.66 325.779-1.798 284.937 39.042a135.065 135.065 0 0 0-12.815 14.82l-97.369 119.38c-3.49 4.279-2.851 10.577 1.429 14.067a9.954 9.954 0 0 0 6.313 2.251c2.9 0 5.777-1.257 7.754-3.679l56.791-69.629a135.161 135.161 0 0 0-1.051 16.818c0 35.518 13.832 68.912 38.948 94.028 25.115 25.116 58.509 38.948 94.028 38.948 5.707 0 11.358-.362 16.931-1.066L183.929 438.555a92.93 92.93 0 0 0 2.072-19.538c0-51.27-41.712-92.983-92.983-92.983-6.681 0-13.198.715-19.482 2.06l63.889-78.069c3.496-4.273 2.867-10.573-1.406-14.069-4.272-3.498-10.571-2.868-14.069 1.405L25.87 354.763C9.875 371.471.035 394.116.035 419.017.035 470.287 41.747 512 93.018 512c24.638 0 47.066-9.636 63.721-25.333L457.23 240.599a134.707 134.707 0 0 0 15.763-13.501c20.358-20.358 33.332-46.134 37.519-74.54 4.105-27.842-.53-55.708-13.4-80.583zM20.031 419.017c0-40.245 32.742-72.986 72.986-72.986s72.986 32.742 72.986 72.986-32.742 72.986-72.986 72.986-72.986-32.742-72.986-72.986z"/>
  <path d="M459.512 53.845a9.967 9.967 0 0 0 7.121 2.979 9.97 9.97 0 0 0 7.019-2.877c3.933-3.876 3.978-10.206.103-14.139l-.76-.766c-3.905-3.904-10.234-3.904-14.14 0-3.904 3.904-3.904 10.235 0 14.14l.657.663zM149.838 437.479a9.997 9.997 0 0 0-1.749-9.394c-4.269-5.254-4.269-12.882 0-18.136a10 10 0 0 0-5.188-15.966c-6.543-1.742-11.025-7.913-10.66-14.672a9.995 9.995 0 0 0-13.581-9.868c-6.312 2.436-13.57.08-17.249-5.605a9.999 9.999 0 0 0-16.788.001c-3.677 5.684-10.932 8.043-17.248 5.604a9.995 9.995 0 0 0-13.581 9.867c.365 6.761-4.118 12.932-10.661 14.673a10 10 0 0 0-6.937 6.572 9.994 9.994 0 0 0 1.75 9.394c4.269 5.254 4.269 12.882 0 18.136a9.997 9.997 0 0 0 5.187 15.966c6.543 1.742 11.026 7.913 10.661 14.673a9.996 9.996 0 0 0 13.581 9.867c6.316-2.438 13.569-.079 17.248 5.604a9.998 9.998 0 0 0 16.788.001c3.678-5.684 10.932-8.043 17.249-5.605a9.996 9.996 0 0 0 13.581-9.868c-.365-6.76 4.117-12.931 10.66-14.672a9.999 9.999 0 0 0 6.937-6.572zm-23.155-7.524a34.74 34.74 0 0 0-12.859 17.699l-.235-.001a34.749 34.749 0 0 0-20.569 6.762 34.744 34.744 0 0 0-20.569-6.762l-.237.001a34.75 34.75 0 0 0-12.859-17.699 34.74 34.74 0 0 0 0-21.877 34.744 34.744 0 0 0 12.859-17.699l.237.001c7.382 0 14.624-2.38 20.568-6.762a34.747 34.747 0 0 0 20.57 6.762l.235-.001a34.746 34.746 0 0 0 12.859 17.699 34.755 34.755 0 0 0 0 21.877z"/>
  <path d="M93.018 409.019c-2.63 0-5.209 1.069-7.069 2.929-1.86 1.861-2.929 4.439-2.929 7.069s1.069 5.209 2.929 7.068c1.86 1.86 4.439 2.93 7.069 2.93s5.209-1.07 7.068-2.93c1.86-1.859 2.93-4.438 2.93-7.068s-1.07-5.209-2.93-7.069a10.07 10.07 0 0 0-7.068-2.929z"/>
</svg>
