<svg xmlns="http://www.w3.org/2000/svg" viewBox="0 0 512 512">
  <path d="M492.868 100.398c16.3 16.3 16.3 42.833 0 59.134l-82.775 82.775v242.665c0 14.904-12.123 27.027-27.015 27.027H33.934c-14.904 0-27.027-12.123-27.027-27.027V114.733c0-3.275 1.298-6.426 3.621-8.737L112.903 3.621A12.326 12.326 0 0 1 121.64 0h261.438c14.892 0 27.015 12.123 27.015 27.027v67.921l9.096-9.096c16.3-16.3 42.833-16.3 59.134 0l14.545 14.546zm-17.487 41.659c6.673-6.673 6.673-17.512 0-24.185l-14.533-14.533c-6.673-6.673-17.512-6.673-24.185 0l-15.571 15.571 38.718 38.718 15.571-15.571zm-230.69 230.691l197.645-197.645-38.718-38.718L205.972 334.03l38.719 38.718zm59.072-171.47l82.133-82.133a11.85 11.85 0 0 1-.519-3.522V27.027a2.305 2.305 0 0 0-2.299-2.311h-249.08v75.36c0 14.892-12.123 27.015-27.015 27.015h-75.36v357.881a2.315 2.315 0 0 0 2.311 2.311h349.144a2.305 2.305 0 0 0 2.299-2.311V267.024L253.428 398.972a12.362 12.362 0 0 1-5.438 3.164s-77.931 21.627-77.993 21.639c-.395.111-3.102.408-3.114.408H103.56c-6.822 0-12.358-5.524-12.358-12.358 0-6.822 5.536-12.358 12.358-12.358h53.931l19.093-68.736a12.286 12.286 0 0 1 3.164-5.438l.198-.198H103.56c-6.822 0-12.358-5.536-12.358-12.358 0-6.822 5.536-12.358 12.358-12.358h101.102l74.384-74.384H103.56c-6.822 0-12.358-5.524-12.358-12.358 0-6.822 5.536-12.358 12.358-12.358h200.203zm-119.121 192.8l36.333-10.084-26.249-26.249-10.084 36.333zm-75.36-294.001V42.203L49.11 102.375h57.873a2.294 2.294 0 0 0 2.299-2.298z" fill="#1e0478"/>
  <path d="M475.381 117.872c6.673 6.673 6.673 17.512 0 24.185l-15.571 15.571-38.718-38.718 15.571-15.571c6.673-6.673 17.512-6.673 24.185 0l14.533 14.533z" fill="#9b8ccc"/>
  <path fill="#ff925b" d="M442.342 175.112L244.697 372.757l-38.72-38.72 197.645-197.645z"/>
  <path d="M385.895 119.145l-82.133 82.133H103.56c-6.822 0-12.358 5.536-12.358 12.358 0 6.834 5.536 12.358 12.358 12.358h175.486l-74.384 74.384H103.56c-6.822 0-12.358 5.536-12.358 12.358 0 6.822 5.536 12.358 12.358 12.358h76.386l-.198.198a12.296 12.296 0 0 0-3.164 5.438l-19.093 68.736H103.56c-6.822 0-12.358 5.536-12.358 12.358 0 6.834 5.536 12.358 12.358 12.358h63.323c.012 0 2.719-.297 3.114-.408.062-.012 77.993-21.639 77.993-21.639a12.358 12.358 0 0 0 5.438-3.164l131.948-131.948v217.949a2.305 2.305 0 0 1-2.299 2.311H33.934a2.315 2.315 0 0 1-2.311-2.311v-357.88h75.36c14.892 0 27.015-12.123 27.015-27.015v-75.36h249.079a2.305 2.305 0 0 1 2.299 2.311v88.596c0 1.223.173 2.409.519 3.521z" fill="#c8f5ff"/>
  <path fill="#9b8ccc" d="M220.975 383.994l-36.333 10.084 10.085-36.333z"/>
  <path d="M109.282 42.203v57.873a2.295 2.295 0 0 1-2.299 2.299H49.11l60.172-60.172z" fill="#c8f5ff"/>
</svg>
