<svg xmlns="http://www.w3.org/2000/svg" viewBox="0 0 512 512">
  <path d="M502 232.738l-53.678-101.922a20.002 20.002 0 0 1-2.288-9.289V51.972c0-10.845 8.433-20.082 19.272-20.467 11.378-.404 20.73 8.699 20.73 19.988V116.6l15.966 30.633v85.505H502z" fill="currentColor"/>
  <circle cx="325.723" cy="426.508" r="54.002" fill="#aae6ff"/>
  <path fill="currentColor" d="M56.454 408.507h215.265v36.002H28.015zm409.581-243.915L364.65 384.963l-32.706-15.047 112.469-242.878zM184.023 81.525h260.39l-3.398 40.001H202.879zm99.991 305.262L112.984 37.648h44.69l162.269 331.555z"/>
  <path d="M173.576 161.137L44.285 434.21c-3.076 6.497-9.54 10.302-16.282 10.302-2.581 0-5.202-.558-7.689-1.735-8.985-4.254-12.821-14.987-8.566-23.973l141.346-299.521 20.482 41.854z" fill="currentColor"/>
  <path d="M155.985 398.507c-2.63 0-5.21 1.069-7.07 2.93a10.076 10.076 0 0 0-2.93 7.07c0 2.63 1.07 5.21 2.93 7.069 1.86 1.86 4.44 2.931 7.07 2.931s5.21-1.07 7.07-2.931a10.072 10.072 0 0 0 2.93-7.069c0-2.63-1.07-5.21-2.93-7.07a10.072 10.072 0 0 0-7.07-2.93zM279.991 91.524c2.63 0 5.21-1.07 7.07-2.931a10.072 10.072 0 0 0 2.93-7.069c0-2.631-1.07-5.211-2.93-7.07a10.076 10.076 0 0 0-7.07-2.93c-2.63 0-5.21 1.069-7.07 2.93a10.072 10.072 0 0 0-2.93 7.07c0 2.63 1.07 5.21 2.93 7.069a10.069 10.069 0 0 0 7.07 2.931zm45.731 324.984c-2.64 0-5.21 1.069-7.07 2.93a10.076 10.076 0 0 0-2.93 7.07c0 2.63 1.07 5.21 2.93 7.069a10.077 10.077 0 0 0 7.07 2.931c2.63 0 5.21-1.07 7.07-2.931a10.072 10.072 0 0 0 2.93-7.069c0-2.63-1.07-5.21-2.93-7.07a10.072 10.072 0 0 0-7.07-2.93z"/>
  <path d="M510.868 142.61l-14.834-28.46V51.493c0-8.216-3.256-15.884-9.168-21.59-5.91-5.703-13.694-8.687-21.917-8.393-16.215.577-28.917 13.958-28.917 30.462v19.552h-115.04c-5.523 0-10 4.478-10 10s4.477 10 10 10h115.041v20.001H204.964l-9.788-20.001h43.313c5.523 0 10-4.478 10-10s-4.477-10-10-10h-53.102l-18.731-38.272a10 10 0 0 0-8.982-5.604h-44.69a9.998 9.998 0 0 0-8.981 14.399l37.936 77.44L2.708 414.525c-3.201 6.76-3.577 14.362-1.06 21.405 2.517 7.043 7.625 12.686 14.386 15.886a27.76 27.76 0 0 0 11.969 2.697c.036 0 .071-.004.107-.004h240.072c10.405 21.295 32.284 36.001 57.539 36.001 35.291 0 64.003-28.711 64.003-64.003 0-15.377-5.453-29.501-14.525-40.55l91.476-198.831 26.476 50.271a10.004 10.004 0 0 0 11.248 5.048 10 10 0 0 0 7.6-9.708v-85.505a9.988 9.988 0 0 0-1.131-4.622zm-79.553-11.084L326.029 358.889 214.753 131.526h216.562zM151.434 47.648l155.479 317.681a63.802 63.802 0 0 0-17.95 8.831L129.018 47.648h22.416zM20.791 423.073l132.411-280.589 9.225 18.832L35.246 429.931a8.044 8.044 0 0 1-7.189 4.577h-.041l-.044.002a7.906 7.906 0 0 1-3.38-.772 7.947 7.947 0 0 1-4.11-4.538 7.955 7.955 0 0 1 .309-6.127zm34.417 11.435l7.575-16.001h50.199c5.523 0 10-4.478 10-10s-4.477-10-10-10H72.254L173.68 184.286l100.26 204.669c-2.182 3-4.116 6.19-5.758 9.551h-65.195c-5.523 0-10 4.478-10 10s4.477 10 10 10h59.249c-.329 2.623-.518 5.289-.518 8s.189 5.377.518 8l-207.028.002zm270.513 36.002c-24.263 0-44.002-19.739-44.002-44.002s19.739-44.002 44.002-44.002 44.002 19.739 44.002 44.002-19.739 44.002-44.002 44.002zm33.797-98.318a63.643 63.643 0 0 0-14.502-6.707l100.871-217.829 9.037 17.16-95.406 207.376zm132.481-179.904l-34.821-66.117a10.04 10.04 0 0 1-1.145-4.646V51.973c0-5.586 4.318-10.284 9.626-10.473a9.924 9.924 0 0 1 7.317 2.796 9.92 9.92 0 0 1 3.057 7.197V116.6c0 1.609.388 3.194 1.132 4.622l14.833 28.46v42.607h.001z"/>
</svg>
