<svg xmlns="http://www.w3.org/2000/svg" viewBox="0 0 512 512">
  <path d="M248.527 49.777H462v-40H248.528c-50.55 0-91.528 40.978-91.528 91.528v83.012c0 50.549 40.978 91.527 91.527 91.527H462v-40H248.527c-28.458 0-51.527-23.07-51.527-51.527v-83.012c0-28.459 23.07-51.528 51.527-51.528z" fill="#d7d7e6"/>
  <path d="M221 118.538h241v48H221c-13.255 0-24-10.745-24-24s10.745-24 24-24z" fill="#6e87f5"/>
  <path fill="#9bbeff" d="M462 122.54h40v40h-40z"/>
  <path d="M101.527 275.885H315v-40H101.528c-50.55 0-91.528 40.979-91.528 91.528v83.012c0 50.549 40.978 91.527 91.527 91.527H315v-40H101.527C73.07 461.952 50 438.883 50 410.425v-83.012c0-28.458 23.07-51.528 51.527-51.528z" fill="#d7d7e6"/>
  <path d="M74 344.647h241v48H74c-13.255 0-24-10.745-24-24s10.745-24 24-24z" fill="#5a55e1"/>
  <path fill="#9bbeff" d="M315 348.65h40v40h-40z"/>
  <path d="M186.5 354.645c2.63 0 5.21-1.061 7.069-2.931a10.073 10.073 0 0 0 2.931-7.069c0-2.631-1.07-5.211-2.931-7.07-1.859-1.86-4.439-2.93-7.069-2.93s-5.21 1.069-7.07 2.93a10.072 10.072 0 0 0-2.93 7.07c0 2.64 1.069 5.21 2.93 7.069a10.034 10.034 0 0 0 7.07 2.931z"/>
  <path d="M355 338.646h-30V235.884c0-5.522-4.478-10-10-10H101.528C45.546 225.885 0 271.431 0 327.413v83.012c0 55.982 45.545 101.527 101.527 101.527H315c5.522 0 10-4.478 10-10v-40c0-.092-.011-.181-.014-.272.002-.091.014-.18.014-.272v-62.762h30c5.522 0 10-4.478 10-10v-40c0-5.522-4.478-10-10-10zm-90-52.76v48.761h-36c-5.522 0-10 4.478-10 10s4.478 10 10 10h76v28H74c-7.72 0-14-6.28-14-14s6.28-14 14-14h67c5.522 0 10-4.478 10-10s-4.478-10-10-10h-17v-48.761h141zm40 0v48.761h-20v-48.761h20zm-201 48.76H74a33.79 33.79 0 0 0-14 3.028v-10.262c0-22.898 18.629-41.527 41.527-41.527H104v48.761zm-44 64.972a33.79 33.79 0 0 0 14 3.028h30v49.306h-2.473C78.629 451.952 60 433.323 60 410.425v-10.807zm64 3.028h141v49.306H124v-49.306zm161 0h20v49.306h-20v-49.306zm20 89.306h-37v-2.055c0-5.522-4.478-10-10-10s-10 4.478-10 10v2.055h-28v-2.055c0-5.522-4.478-10-10-10s-10 4.478-10 10v2.055h-28v-2.055c0-5.522-4.478-10-10-10s-10 4.478-10 10v2.055h-28v-2.055c0-5.522-4.478-10-10-10s-10 4.478-10 10v2.055h-2.473C56.573 491.952 20 455.379 20 410.425v-83.012c0-44.955 36.573-81.528 81.528-81.528h2.517c.452 5.104 4.734 9.108 9.955 9.108s9.503-4.004 9.955-9.108h28.09c.452 5.104 4.734 9.108 9.955 9.108s9.503-4.004 9.955-9.108h28.09c.452 5.104 4.734 9.108 9.955 9.108s9.503-4.004 9.955-9.108h28.09c.452 5.104 4.734 9.108 9.955 9.108s9.503-4.004 9.955-9.108H305v20.001H101.527C67.601 265.886 40 293.487 40 327.413v83.012c0 33.926 27.601 61.527 61.527 61.527H305v20zm40-113.306h-20v-20h20v20zM164.069 191.654a10.04 10.04 0 0 0 2.931-7.061c0-2.64-1.07-5.21-2.931-7.08-1.859-1.859-4.439-2.92-7.069-2.92s-5.21 1.061-7.07 2.92a10.1 10.1 0 0 0-2.93 7.08c0 2.63 1.069 5.21 2.93 7.061 1.86 1.87 4.44 2.93 7.07 2.93s5.21-1.06 7.069-2.93z"/>
  <path d="M502 112.81h-30V10.048c0-5.522-4.478-10-10-10H248.528C192.546.048 147 45.593 147 101.576v49.876c0 5.522 4.478 10 10 10s10-4.478 10-10v-49.876c0-44.955 36.573-81.528 81.528-81.528h2.517c.451 5.105 4.733 9.109 9.955 9.109s9.504-4.005 9.955-9.109h28.09c.451 5.105 4.733 9.109 9.955 9.109s9.504-4.005 9.955-9.109h28.09c.451 5.105 4.733 9.109 9.955 9.109s9.504-4.005 9.955-9.109h28.09c.451 5.105 4.733 9.109 9.955 9.109s9.504-4.005 9.955-9.109H452v20.001H248.527C214.6 40.049 187 67.65 187 101.576v83.012c0 5.522 4.478 10 10 10s10-4.478 10-10v-10.807a33.79 33.79 0 0 0 14 3.028h30v7.767c0 5.522 4.478 10 10 10s10-4.478 10-10v-7.767h141v49.306h-55c-5.522 0-10 4.478-10 10s4.478 10 10 10h95v20h-37v-2.055c0-5.522-4.478-10-10-10s-10 4.478-10 10v2.055h-38c-5.522 0-10 4.478-10 10s4.478 10 10 10h105c5.522 0 10-4.478 10-10v-40c0-.092-.011-.181-.014-.272.002-.091.014-.18.014-.272V172.81h30c5.522 0 10-4.478 10-10v-40c0-5.523-4.478-10-10-10zm-231-4V60.049h141v48.761H271zm161-48.761h20v48.761h-20V60.049zm-183.473 0H251v48.761h-30a33.79 33.79 0 0 0-14 3.028v-10.262c0-22.898 18.629-41.527 41.527-41.527zM207 142.81c0-7.72 6.28-14 14-14h231v28H221c-7.72 0-14-6.281-14-14zm225 83.305V176.81h20v49.306l-20-.001zm60-73.305h-20v-20h20v20z"/>
</svg>
