<svg xmlns="http://www.w3.org/2000/svg" viewBox="0 0 512 512">
  <path fill="#c8f5ff" d="M36 102.19h440V502H36z"/>
  <path fill="#f5c86e" d="M456.988 10H55.011L10 63.987h492z"/>
  <path d="M92 63.987v32.32c0 22.656 18.356 41.021 41 41.021s41-18.366 41-41.021v-32.32m246 0v32.32c0 22.656 18.356 41.021 41 41.021s41-18.366 41-41.021v-32.32h-82z" fill="#fff"/>
  <path d="M10 96.306c0 22.656 18.356 41.021 41 41.021s41-18.366 41-41.021v-32.32H10v32.32z" fill="#ff5a5a"/>
  <path d="M256 63.987v32.32c0 22.656 18.356 41.021 41 41.021s41-18.366 41-41.021v-32.32" fill="#fff"/>
  <path d="M174 63.987v32.32c0 22.656 18.356 41.021 41 41.021s41-18.366 41-41.021v-32.32m82 0v32.32c0 22.656 18.356 41.021 41 41.021s41-18.366 41-41.021v-32.32" fill="#ff5a5a"/>
  <g fill="#6e87f5">
    <circle cx="154.45" cy="392.74" r="69.26"/>
    <circle cx="357.55" cy="392.74" r="69.26"/>
    <path d="M202.404 224.051H179c-8.837 0-16 7.163-16 16s7.163 16 16 16h45.406v-9.998c0-12.151-9.851-22.002-22.002-22.002z"/>
  </g>
  <path fill="#f5c86e" d="M412.233 304h-54.24l-9.721-38h78.543z"/>
  <path d="M486 140.751c15.504-8.763 26-25.396 26-44.445V63.987a9.955 9.955 0 0 0-2.321-6.402l.002-.001-45.012-53.988A10 10 0 0 0 456.988 0H55.012a10 10 0 0 0-7.681 3.596L2.319 57.583l.002.001A9.957 9.957 0 0 0 0 63.987v32.319c0 19.049 10.496 35.683 26 44.445V492H10c-5.523 0-10 4.477-10 10s4.477 10 10 10h492c5.523 0 10-4.477 10-10s-4.477-10-10-10h-16v-99.264c0-5.523-4.477-10-10-10s-10 4.477-10 10V492H46V147.08c1.646.161 3.313.248 5 .248 16.787 0 31.701-8.159 41-20.718 9.299 12.559 24.213 20.718 41 20.718s31.701-8.159 41-20.718a51.436 51.436 0 0 0 2.716 3.35l-79.545 79.544c-3.905 3.905-3.905 10.237 0 14.143 1.953 1.953 4.512 2.929 7.071 2.929s5.119-.977 7.071-2.929l81.439-81.439A50.665 50.665 0 0 0 215 147.327c16.787 0 31.701-8.159 41-20.718 9.299 12.559 24.213 20.718 41 20.718s31.701-8.159 41-20.718c9.299 12.559 24.213 20.718 41 20.718s31.701-8.159 41-20.718c6.508 8.789 15.769 15.414 26.495 18.604l-71.141 71.141c-3.905 3.905-3.905 10.237 0 14.143 1.953 1.953 4.512 2.929 7.071 2.929s5.119-.976 7.071-2.929L466 153.994v156.512c0 5.523 4.477 10 10 10s10-4.477 10-10V140.751zM59.694 20h392.612l28.336 33.987H31.357L59.694 20zM51 127.328c-17.093 0-31-13.916-31-31.021v-22.32h62v22.319c0 17.106-13.907 31.022-31 31.022zm82 0c-17.093 0-31-13.916-31-31.021v-22.32h62v22.319c0 17.106-13.907 31.022-31 31.022zm82 0c-17.093 0-31-13.916-31-31.021v-22.32h62v22.319c0 17.106-13.907 31.022-31 31.022zm82 0c-17.093 0-31-13.916-31-31.021v-22.32h62v22.319c0 17.106-13.907 31.022-31 31.022zm82 0c-17.093 0-31-13.916-31-31.021v-22.32h62v22.319c0 17.106-13.907 31.022-31 31.022zm51-31.022V73.987h62v22.319c0 17.105-13.907 31.021-31 31.021s-31-13.915-31-31.021z"/>
  <path d="M476 341.5c-2.63 0-5.21 1.07-7.07 2.93-1.86 1.86-2.93 4.44-2.93 7.07s1.07 5.21 2.93 7.07c1.86 1.86 4.44 2.93 7.07 2.93s5.21-1.07 7.07-2.93 2.93-4.44 2.93-7.07-1.07-5.21-2.93-7.07a10.076 10.076 0 0 0-7.07-2.93zm-297-75.449h45.406c5.523 0 10-4.477 10-10v-9.998c0-17.646-14.356-32.002-32.002-32.002H179c-14.336 0-26 11.664-26 26s11.664 26 26 26zm0-32h23.404c6.617 0 12.001 5.383 12.002 12H179c-3.309 0-6-2.691-6-6s2.691-6 6-6z"/>
  <path d="M421.57 307.583l14.582-38a9.998 9.998 0 0 0-9.337-13.582h-78.543a10.001 10.001 0 0 0-9.688 12.479l9.721 38a9.996 9.996 0 0 0 6.701 7.058 78.877 78.877 0 0 0-19.651 3.121l-26.329-60.513 11.035-23.638a10.001 10.001 0 0 0-9.061-14.23h-40c-5.523 0-10 4.477-10 10s4.477 10 10 10h24.296l-6.299 13.494a10.002 10.002 0 0 0-.108 8.22l5.156 11.851h-89.999l-.003.006c-3.82.004-7.465 2.199-9.125 5.912l-17.496 39.12a79.004 79.004 0 0 0-22.972-3.406c-43.707 0-79.264 35.558-79.264 79.264S110.743 472 154.449 472c40.317 0 73.676-30.265 78.611-69.264h13.641v11.768h-5.746c-5.523 0-10 4.477-10 10s4.477 10 10 10h15.746c5.523 0 10-4.477 10-10v-29.689l40.401-92.964 9.92 22.801c-23.177 13.849-38.736 39.179-38.736 68.085 0 43.707 35.558 79.264 79.264 79.264s79.264-35.558 79.264-79.264c0-40.655-30.771-74.241-70.243-78.736h45.661a10.005 10.005 0 0 0 9.338-6.418zM210.527 291.84h79.118l-39.502 90.896H233.06c-3.088-24.405-17.294-45.39-37.39-57.676l14.857-33.22zm-23.11 51.674c13.209 8.876 22.653 22.926 25.436 39.222h-42.977l17.541-39.222zM154.449 452c-32.678 0-59.264-26.586-59.264-59.264s26.586-59.264 59.264-59.264c5.08 0 10.013.644 14.722 1.852l-23.85 53.329a10 10 0 0 0 9.128 14.083h58.403C208.084 430.667 183.718 452 154.449 452zm262.366-59.264c0 32.678-26.586 59.264-59.264 59.264s-59.264-26.586-59.264-59.264c0-20.7 10.675-38.944 26.802-49.546l23.293 53.536a10.001 10.001 0 0 0 9.174 6.013 9.972 9.972 0 0 0 3.985-.833c5.064-2.203 7.383-8.095 5.18-13.159l-23.303-53.558a59.182 59.182 0 0 1 14.133-1.716c32.678-.001 59.264 26.585 59.264 59.263zM365.756 294l-4.604-18h51.115l-6.907 18h-39.604zM87.91 242.91c0-2.63-1.07-5.21-2.93-7.07s-4.44-2.93-7.07-2.93-5.21 1.07-7.07 2.93-2.93 4.44-2.93 7.07 1.07 5.21 2.93 7.07 4.44 2.93 7.07 2.93 5.21-1.07 7.07-2.93c1.86-1.86 2.93-4.44 2.93-7.07z"/>
</svg>
