<svg xmlns="http://www.w3.org/2000/svg" viewBox="0 0 511.999 511.999">
  <path d="M160.445 483.008l-.471-19.68c-.43-17.975-19.734-29.119-35.515-20.505l-17.279 9.432-18.614-15.619 6.288-18.654c5.743-17.038-8.584-34.113-26.36-31.415l-19.463 2.954-12.15-21.044 12.29-15.378c11.224-14.046 3.601-34.991-14.026-38.536l-19.299-3.881-4.22-23.93 16.808-10.248c15.351-9.36 15.351-31.649 0-41.009l-16.808-10.248 4.22-23.93 19.299-3.881c17.627-3.545 25.25-24.49 14.026-38.536l-12.289-15.378 12.15-21.044 19.463 2.954c17.776 2.698 32.104-14.377 26.36-31.415l-6.288-18.654 18.614-15.619 17.279 9.432c15.781 8.615 35.085-2.53 35.515-20.505l.471-19.68 22.834-8.311 13.011 14.773c11.883 13.493 33.834 9.622 40.386-7.121l7.172-18.333h24.299l7.173 18.332c6.552 16.743 28.503 20.614 40.386 7.121l13.012-14.773 22.834 8.311.471 19.68c.43 17.975 19.734 29.119 35.515 20.505l17.279-9.432 18.614 15.619-6.288 18.654c-5.743 17.038 8.584 34.113 26.36 31.415l19.463-2.954 12.15 21.044-12.29 15.378c-11.224 14.046-3.601 34.991 14.026 38.536l19.299 3.881 4.22 23.93-16.808 10.248c-15.351 9.36-15.351 31.649 0 41.009l16.808 10.248-4.22 23.93-19.299 3.881c-17.627 3.545-25.25 24.49-14.026 38.536l12.289 15.378-12.15 21.044-19.463-2.954c-17.776-2.698-32.104 14.377-26.36 31.415l6.288 18.654-18.614 15.619-17.279-9.432c-15.781-8.615-35.085 2.53-35.515 20.505l-.471 19.68-22.834 8.311-13.011-14.773c-11.883-13.493-33.834-9.622-40.386 7.121l-7.172 18.333h-24.3l-7.173-18.332c-6.552-16.743-28.503-20.614-40.386-7.121l-13.011 14.773-22.834-8.311z" fill="#7d9bff"/>
  <g fill="#fff">
    <circle cx="255.999" cy="255.999" r="100"/>
    <path d="M117.999 255.999c0-4.73.238-9.403.704-14.01 1.303-12.903-8.657-24.161-21.625-24.161h-.481c-11.199 0-20.529 8.504-21.661 19.646a183.155 183.155 0 0 0-.409 32.43c.858 11.273 10.376 19.924 21.682 19.924h.49c12.638 0 22.645-10.732 21.694-23.334a139.69 139.69 0 0 1-.394-10.495zm244.766 87.427a138.853 138.853 0 0 1-17.141 17.499c-9.699 8.293-10.418 23.021-1.394 32.045l.344.344c8.018 8.018 20.867 8.553 29.493 1.191a183.113 183.113 0 0 0 22.656-23.097c7.103-8.653 6.482-21.287-1.434-29.203l-.198-.198c-9.105-9.104-24.164-8.538-32.326 1.419zm-245.857-1.419l-.198.198c-7.916 7.916-8.537 20.55-1.434 29.203a183.18 183.18 0 0 0 22.656 23.097c8.625 7.362 21.474 6.827 29.493-1.191l.344-.344c9.024-9.024 8.306-23.752-1.394-32.045a138.853 138.853 0 0 1-17.141-17.499c-8.163-9.957-23.222-10.523-32.326-1.419zm277.091-86.008c0 3.531-.133 7.03-.394 10.494-.951 12.603 9.056 23.334 21.694 23.334h.49c11.306 0 20.824-8.651 21.682-19.924a183.291 183.291 0 0 0-.409-32.43c-1.132-11.142-10.462-19.646-21.661-19.646h-.481c-12.968 0-22.928 11.259-21.625 24.161.466 4.608.704 9.281.704 14.011zm-174-159.607v.72c0 12.743 10.989 22.56 23.682 21.432 4.057-.361 8.166-.545 12.318-.545 4.152 0 8.26.184 12.318.545 12.693 1.128 23.682-8.69 23.682-21.432v-.72c0-11.262-8.59-20.687-19.807-21.679a184.098 184.098 0 0 0-32.386-.001c-11.217.993-19.807 10.418-19.807 21.68zm72 319.214v-.72c0-12.743-10.989-22.56-23.682-21.432a138.98 138.98 0 0 1-12.318.545c-4.152 0-8.261-.184-12.318-.545-12.693-1.128-23.682 8.69-23.682 21.432v.72c0 11.262 8.59 20.687 19.807 21.679a184.098 184.098 0 0 0 32.386.001c11.217-.993 19.807-10.418 19.807-21.68zM151.073 166.375a138.853 138.853 0 0 1 17.499-17.141c9.957-8.163 10.523-23.221 1.419-32.325l-.198-.198c-7.916-7.916-20.55-8.537-29.203-1.434a183.18 183.18 0 0 0-23.097 22.656c-7.362 8.625-6.827 21.474 1.191 29.493l.343.343c9.025 9.023 23.753 8.305 32.046-1.394zm241.897 1.394l.344-.343c8.018-8.018 8.553-20.867 1.191-29.493a183.113 183.113 0 0 0-23.097-22.656c-8.653-7.103-21.287-6.482-29.203 1.434l-.198.198c-9.104 9.104-8.537 24.163 1.419 32.325a138.853 138.853 0 0 1 17.499 17.141c8.293 9.699 23.021 10.417 32.045 1.394z"/>
  </g>
  <path d="M268.148 511.999h-24.299a10 10 0 0 1-9.313-6.355l-7.174-18.332c-1.822-4.658-5.692-7.827-10.618-8.695-4.927-.874-9.646.786-12.95 4.539l-13.012 14.772a9.99 9.99 0 0 1-10.924 2.787l-22.834-8.311a9.998 9.998 0 0 1-6.577-9.157l-.471-19.68c-.12-5-2.673-9.302-7.004-11.802-4.333-2.501-9.334-2.563-13.724-.165l-17.277 9.433a9.998 9.998 0 0 1-11.22-1.117l-18.612-15.619a10.002 10.002 0 0 1-3.049-10.854l6.288-18.654c1.598-4.739.671-9.655-2.545-13.487-3.215-3.829-7.891-5.597-12.838-4.847l-19.464 2.953a10.004 10.004 0 0 1-10.16-4.887l-12.149-21.043a9.997 9.997 0 0 1 .848-11.242l12.289-15.379c3.123-3.908 3.933-8.844 2.222-13.544-1.71-4.699-5.503-7.96-10.406-8.946l-19.3-3.881a10 10 0 0 1-7.876-8.067l-4.22-23.932a9.996 9.996 0 0 1 4.643-10.274l16.808-10.247c4.27-2.604 6.719-6.966 6.719-11.967s-2.449-9.363-6.72-11.967L6.422 233.785a10 10 0 0 1-4.643-10.274l4.219-23.931a9.998 9.998 0 0 1 7.876-8.067l19.3-3.881c4.903-.986 8.696-4.247 10.406-8.946 1.711-4.7.901-9.636-2.221-13.543l-12.29-15.38a10 10 0 0 1-.848-11.242l12.149-21.043a10.012 10.012 0 0 1 10.16-4.887l19.463 2.953c4.948.75 9.625-1.017 12.839-4.847 3.216-3.832 4.143-8.748 2.545-13.487l-6.288-18.654a10.001 10.001 0 0 1 3.049-10.854l18.614-15.619a10.001 10.001 0 0 1 11.22-1.117l17.278 9.433c4.388 2.396 9.39 2.336 13.723-.165 4.331-2.5 6.884-6.802 7.004-11.802l.471-19.68a10 10 0 0 1 6.577-9.157l22.834-8.311a9.992 9.992 0 0 1 10.924 2.787l13.011 14.772c3.307 3.754 8.028 5.413 12.951 4.539 4.926-.868 8.796-4.037 10.618-8.694l7.174-18.333A10 10 0 0 1 243.85 0h24.299a10 10 0 0 1 9.313 6.355l7.174 18.332c1.822 4.658 5.692 7.827 10.618 8.695 4.928.87 9.646-.786 12.95-4.539l13.012-14.772a9.997 9.997 0 0 1 10.924-2.787l22.834 8.311a9.998 9.998 0 0 1 6.577 9.157l.471 19.68c.12 5 2.673 9.302 7.004 11.802 4.331 2.501 9.333 2.561 13.724.165l17.277-9.433a10.001 10.001 0 0 1 11.22 1.117l18.614 15.619a10.002 10.002 0 0 1 3.049 10.854l-6.288 18.654c-1.598 4.739-.671 9.655 2.545 13.487 3.215 3.829 7.891 5.596 12.838 4.847l19.464-2.953a10.008 10.008 0 0 1 10.16 4.887l12.149 21.043a9.997 9.997 0 0 1-.848 11.242l-12.289 15.379c-3.123 3.908-3.933 8.844-2.222 13.544 1.71 4.699 5.503 7.96 10.406 8.946l19.3 3.881a10 10 0 0 1 7.876 8.067l4.219 23.931a9.996 9.996 0 0 1-4.643 10.274l-16.808 10.247c-4.27 2.604-6.719 6.966-6.719 11.967s2.449 9.363 6.72 11.967l16.807 10.247a10 10 0 0 1 4.643 10.274l-4.219 23.931a9.998 9.998 0 0 1-7.876 8.067l-19.3 3.881c-4.903.986-8.696 4.247-10.406 8.946-1.711 4.7-.901 9.636 2.221 13.543l12.29 15.38a10 10 0 0 1 .848 11.242l-12.149 21.043a9.998 9.998 0 0 1-10.16 4.887l-19.463-2.953c-4.946-.751-9.625 1.017-12.839 4.847-3.216 3.832-4.143 8.748-2.545 13.487l6.288 18.654c1.314 3.9.104 8.209-3.049 10.854l-18.614 15.619a10 10 0 0 1-11.22 1.117l-17.278-9.433c-4.389-2.397-9.392-2.336-13.723.165-4.331 2.5-6.884 6.802-7.004 11.802l-.471 19.68a10 10 0 0 1-6.577 9.157l-22.834 8.311a9.995 9.995 0 0 1-10.924-2.787l-13.011-14.772c-3.307-3.754-8.027-5.41-12.951-4.539-4.926.868-8.796 4.037-10.618 8.694l-7.174 18.333a10.002 10.002 0 0 1-9.314 6.356zm-17.473-20h10.648l4.687-11.977c4.358-11.137 13.992-19.026 25.771-21.103 11.776-2.077 23.527 2.042 31.433 11.017l8.499 9.65 10.007-3.642.308-12.856c.286-11.956 6.641-22.664 16.998-28.645 10.358-5.979 22.81-6.129 33.306-.398l11.288 6.162 8.157-6.845-4.108-12.187c-3.82-11.334-1.511-23.57 6.177-32.731 7.688-9.162 19.334-13.56 31.161-11.765l12.714 1.929 5.324-9.221-8.028-10.048c-7.466-9.343-9.481-21.63-5.391-32.868s13.532-19.355 25.257-21.714l12.608-2.535 1.849-10.487-10.979-6.694c-10.212-6.227-16.309-17.083-16.309-29.043s6.097-22.816 16.308-29.043l10.98-6.694-1.849-10.487-12.608-2.535c-11.725-2.358-21.167-10.476-25.257-21.714-4.091-11.238-2.075-23.525 5.392-32.869l8.027-10.047-5.324-9.221-12.715 1.929c-11.822 1.795-23.473-2.604-31.16-11.765s-9.997-21.397-6.177-32.731l4.108-12.187-8.157-6.845-11.287 6.162c-10.498 5.73-22.948 5.581-33.307-.398-10.357-5.98-16.712-16.688-16.998-28.645l-.308-12.856-10.007-3.642-8.5 9.65c-7.905 8.976-19.658 13.092-31.432 11.017-11.778-2.076-21.412-9.966-25.771-21.103l-4.687-11.975h-10.648l-4.687 11.977c-4.358 11.137-13.992 19.026-25.771 21.103-11.779 2.076-23.528-2.042-31.433-11.017l-8.499-9.65-10.007 3.642-.308 12.856c-.286 11.956-6.641 22.664-16.998 28.645-10.357 5.979-22.809 6.131-33.306.398l-11.288-6.162-8.157 6.845 4.108 12.187c3.82 11.334 1.511 23.57-6.177 32.731-7.689 9.161-19.336 13.56-31.161 11.765l-12.712-1.93-5.324 9.221 8.028 10.048c7.466 9.343 9.481 21.63 5.391 32.868-4.09 11.238-13.532 19.355-25.257 21.714l-12.608 2.535-1.849 10.487 10.979 6.694c10.213 6.227 16.309 17.083 16.309 29.043s-6.097 22.816-16.308 29.043l-10.98 6.694 1.849 10.487 12.608 2.535c11.725 2.358 21.167 10.476 25.257 21.714 4.091 11.238 2.075 23.525-5.392 32.869l-8.027 10.047 5.324 9.221 12.715-1.929c11.819-1.796 23.473 2.604 31.16 11.765s9.997 21.397 6.177 32.731l-4.108 12.187 8.157 6.845 11.287-6.162c10.498-5.73 22.948-5.581 33.307.398 10.357 5.98 16.712 16.688 16.998 28.645l.308 12.856 10.007 3.642 8.5-9.65c7.903-8.976 19.651-13.092 31.432-11.017 11.778 2.076 21.412 9.966 25.771 21.103l4.685 11.976z"/>
  <path d="M256.627 166.001h-.048l-.58-.002c-5.522 0-10-4.478-10-10s4.478-10 10-10l.674.002c5.522.026 9.979 4.524 9.953 10.047-.025 5.507-4.498 9.953-9.999 9.953z"/>
  <path d="M255.999 365.999c-60.654 0-110-49.346-110-110 0-43.323 25.558-82.752 65.112-100.451 5.043-2.257 10.957.004 13.212 5.044 2.256 5.041-.002 10.956-5.044 13.212-32.366 14.482-53.28 46.746-53.28 82.195 0 49.626 40.374 90 90 90s90-40.374 90-90c0-36.754-21.986-69.476-56.013-83.363-5.113-2.087-7.566-7.925-5.479-13.038a9.999 9.999 0 0 1 13.038-5.479c41.584 16.973 68.454 56.963 68.454 101.88 0 60.654-49.346 110-110 110zm-159.3-66.172h-.49c-16.505 0-30.409-12.811-31.652-29.164-.37-4.853-.558-9.787-.558-14.664 0-6.509.333-13.082.989-19.537 1.658-16.324 15.247-28.635 31.608-28.635h.48a31.705 31.705 0 0 1 23.481 10.424c6.056 6.697 9.005 15.716 8.094 24.743a130.259 130.259 0 0 0-.286 22.746 31.77 31.77 0 0 1-8.366 23.919 31.873 31.873 0 0 1-23.3 10.168zm-.102-72c-6.06 0-11.094 4.581-11.711 10.657a173.632 173.632 0 0 0-.388 30.661c.456 5.991 5.6 10.683 11.711 10.683h.49c3.315 0 6.383-1.338 8.636-3.768 2.237-2.413 3.334-5.543 3.087-8.814a149.812 149.812 0 0 1 .332-26.263c.35-3.461-.727-6.771-3.03-9.319-2.237-2.475-5.308-3.837-8.646-3.837h-.481zM360 409.641c-8.185 0-16.354-3.112-22.498-9.256l-.344-.344a31.758 31.758 0 0 1-9.251-23.624c.347-8.877 4.435-17.294 11.217-23.093a129.117 129.117 0 0 0 15.907-16.238v-.001c5.631-6.866 13.973-11.057 22.888-11.497 9.011-.432 17.857 2.963 24.242 9.349l.198.197a31.659 31.659 0 0 1 2.092 42.619 193.483 193.483 0 0 1-23.894 24.358c-5.904 5.039-13.236 7.53-20.557 7.53zm10.498-59.875a149.214 149.214 0 0 1-18.377 18.761c-2.596 2.219-4.098 5.298-4.229 8.671a11.542 11.542 0 0 0 3.409 8.701l.344.344c4.311 4.313 11.31 4.599 15.929.656a173.485 173.485 0 0 0 21.419-21.835 11.727 11.727 0 0 0-.775-15.787l-.198-.198a12.085 12.085 0 0 0-9.114-3.515c-3.336.164-6.321 1.657-8.408 4.202zm-218.5 59.875c-7.322 0-14.653-2.49-20.558-7.529a193.483 193.483 0 0 1-23.894-24.358 31.657 31.657 0 0 1 2.092-42.619l.198-.198a32.14 32.14 0 0 1 24.242-9.348c8.915.44 17.257 4.631 22.888 11.497a129.044 129.044 0 0 0 15.906 16.238c6.783 5.8 10.871 14.217 11.218 23.094a31.758 31.758 0 0 1-9.251 23.624l-.344.344c-6.142 6.141-14.313 9.254-22.497 9.255zm-19.495-64.091a12.072 12.072 0 0 0-8.523 3.527v.001l-.198.198a11.725 11.725 0 0 0-.775 15.787 173.485 173.485 0 0 0 21.419 21.835c4.62 3.944 11.616 3.656 15.929-.656l.344-.344a11.542 11.542 0 0 0 3.409-8.701c-.132-3.373-1.634-6.452-4.23-8.672a149.199 149.199 0 0 1-18.376-18.76c-2.087-2.545-5.072-4.037-8.406-4.202-.2-.009-.397-.013-.593-.013zm283.286-45.723h-.49a31.875 31.875 0 0 1-23.3-10.168 31.766 31.766 0 0 1-8.366-23.918 129.886 129.886 0 0 0-.287-22.746c-.911-9.028 2.038-18.047 8.094-24.744a31.706 31.706 0 0 1 23.481-10.424h.48c16.361 0 29.95 12.311 31.609 28.636.656 6.454.989 13.027.989 19.536 0 4.877-.188 9.811-.558 14.665-1.243 16.353-15.147 29.163-31.652 29.163zm-.868-72c-3.339 0-6.409 1.362-8.646 3.837-2.304 2.548-3.38 5.858-3.03 9.32a150.09 150.09 0 0 1 .331 26.262c-.247 3.271.85 6.4 3.087 8.813a11.655 11.655 0 0 0 8.636 3.768h.49c6.111 0 11.255-4.691 11.711-10.682a173.597 173.597 0 0 0-.388-30.66c-.617-6.077-5.651-10.658-11.711-10.658h-.48zM241.74 128.63c-7.941 0-15.66-2.96-21.532-8.333a31.502 31.502 0 0 1-10.209-23.186v-.72c0-16.579 12.436-30.182 28.927-31.64 11.271-1 22.873-1 34.148 0 16.489 1.459 28.925 15.061 28.925 31.641v.72a31.502 31.502 0 0 1-10.209 23.186c-6.566 6.009-15.446 9.003-24.357 8.208a129.94 129.94 0 0 0-22.867 0 32.25 32.25 0 0 1-2.826.124zm14.259-44.631c-5.105 0-10.257.227-15.31.675-6.095.539-10.69 5.576-10.69 11.718v.72c0 3.247 1.318 6.241 3.711 8.431 2.472 2.262 5.699 3.345 9.086 3.041a150.243 150.243 0 0 1 26.406 0c3.389.304 6.614-.779 9.086-3.041a11.3 11.3 0 0 0 3.711-8.431v-.72c0-6.142-4.595-11.179-10.688-11.718a174.184 174.184 0 0 0-15.312-.675zm0 364a194.09 194.09 0 0 1-17.075-.753c-16.489-1.458-28.925-15.06-28.925-31.64v-.72a31.502 31.502 0 0 1 10.209-23.186c6.566-6.008 15.448-9.001 24.357-8.208a129.94 129.94 0 0 0 22.867 0c8.919-.792 17.791 2.199 24.357 8.208a31.503 31.503 0 0 1 10.21 23.187v.72c0 16.579-12.436 30.182-28.927 31.64-5.635.499-11.381.752-17.073.752zm-14.312-44.634a11.706 11.706 0 0 0-7.977 3.091 11.3 11.3 0 0 0-3.711 8.431v.72c0 6.142 4.595 11.179 10.688 11.718a174.75 174.75 0 0 0 30.621 0c6.096-.539 10.69-5.576 10.69-11.718v-.72c0-3.247-1.318-6.241-3.711-8.431-2.472-2.262-5.698-3.345-9.086-3.041-8.729.775-17.678.775-26.406 0-.371-.033-.741-.05-1.108-.05zM134.358 184.114a31.763 31.763 0 0 1-22.401-9.274l-.344-.344c-11.64-11.64-12.397-30.552-1.727-43.056a193.483 193.483 0 0 1 24.358-23.894 31.657 31.657 0 0 1 42.619 2.092l.198.198a32.113 32.113 0 0 1 9.348 24.242c-.44 8.915-4.631 17.257-11.497 22.888a129.044 129.044 0 0 0-16.238 15.906l-.001.001c-5.799 6.782-14.216 10.87-23.093 11.217-.407.016-.815.024-1.222.024zm20.045-63.795c-2.635 0-5.278.888-7.469 2.687a173.485 173.485 0 0 0-21.835 21.419c-3.943 4.62-3.655 11.617.656 15.929l.344.344c2.325 2.327 5.404 3.542 8.701 3.409 3.372-.132 6.452-1.634 8.671-4.229a149.214 149.214 0 0 1 18.761-18.377c2.545-2.087 4.037-5.072 4.202-8.406a12.07 12.07 0 0 0-3.514-9.114l-.199-.198a11.726 11.726 0 0 0-8.318-3.464zm223.237 63.795c-.407 0-.814-.008-1.223-.023-8.877-.347-17.294-4.435-23.093-11.217a129.117 129.117 0 0 0-16.238-15.907c-6.867-5.631-11.058-13.973-11.498-22.888a32.11 32.11 0 0 1 9.349-24.242l.197-.198a31.66 31.66 0 0 1 42.619-2.092 193.483 193.483 0 0 1 24.358 23.894c10.671 12.504 9.913 31.416-1.727 43.056l-.344.344a31.77 31.77 0 0 1-22.4 9.273zm-20.045-63.794a11.733 11.733 0 0 0-8.318 3.461l-.198.198a12.071 12.071 0 0 0-3.515 9.114c.165 3.334 1.657 6.319 4.203 8.406a149.273 149.273 0 0 1 18.76 18.377c2.219 2.596 5.298 4.098 8.671 4.229 3.297.133 6.376-1.082 8.701-3.409l.344-.344c4.312-4.312 4.6-11.309.656-15.929a173.485 173.485 0 0 0-21.835-21.419 11.755 11.755 0 0 0-7.469-2.684z"/>
</svg>
