<svg xmlns="http://www.w3.org/2000/svg" viewBox="0 0 512 512">
  <path fill="#bebebe" d="M236 58h40v36h-40z"/>
  <path d="M203.144 58h129.735c-6.752-28.151-31.924-48-60.873-48h-68.862c-16.912 0-28.519 17.024-22.341 32.767A23.999 23.999 0 0 0 203.144 58z" fill="#7d9bff"/>
  <circle cx="256" cy="350" r="152" fill="#c8f5ff"/>
  <circle cx="256" cy="350" r="112" fill="#fff"/>
  <path d="M256 366c-8.837 0-16-7.163-16-16V94h32v256c0 8.837-7.163 16-16 16z" fill="#f5c86e"/>
  <path d="M240 309.67c2.63 0 5.21-1.07 7.07-2.93s2.93-4.44 2.93-7.07c0-2.64-1.07-5.21-2.93-7.07-1.86-1.87-4.44-2.93-7.07-2.93s-5.21 1.06-7.07 2.93a10.06 10.06 0 0 0-2.93 7.07c0 2.63 1.07 5.21 2.93 7.07 1.86 1.86 4.44 2.93 7.07 2.93z"/>
  <path d="M376.069 241.248c-24.808-27.372-57.939-45.317-94.069-51.155v-88.107c2.425-1.825 4-4.718 4-7.986V68h46.879a9.999 9.999 0 0 0 9.725-12.332C334.742 22.892 305.711 0 272.006 0h-68.862a33.976 33.976 0 0 0-28.092 14.847 33.976 33.976 0 0 0-3.559 31.573C176.638 59.529 189.061 68 203.144 68H226v26c0 3.268 1.575 6.161 4 7.986v88.107c-36.13 5.837-69.261 23.783-94.069 51.155C108.891 271.082 94 309.704 94 350c0 74.226 50.186 138.8 122.042 157.032.825.21 1.652.31 2.467.31 4.467 0 8.537-3.015 9.686-7.543 1.358-5.353-1.88-10.794-7.233-12.151C157.984 471.667 114 415.064 114 350c0-69.174 49.138-127.346 116-139.622v20.416c-25.434 5.534-48.578 19.156-65.882 38.948A121.897 121.897 0 0 0 134 350c0 67.271 54.729 122 122 122s122-54.729 122-122c0-29.54-10.696-58.043-30.118-80.258-17.304-19.792-40.448-33.415-65.882-38.948v-20.416C348.862 222.654 398 280.826 398 350c0 63.818-42.936 120.145-104.411 136.974-5.327 1.459-8.463 6.959-7.004 12.286 1.216 4.443 5.245 7.362 9.639 7.362.874 0 1.763-.116 2.646-.357C369.012 487.063 418 422.804 418 350c0-40.296-14.891-78.918-41.931-108.752zM190.111 39.113c-1.718-4.377-1.184-9.115 1.465-13S198.442 20 203.144 20h68.862c19.923 0 37.592 11.038 46.517 28H203.144c-5.799 0-10.915-3.488-13.033-8.887zM266 68v16h-20V68h20zm92 282c0 56.243-45.757 102-102 102s-102-45.757-102-102c0-46.492 31.957-86.99 76-98.617v10.284c0 5.522 4.477 10 10 10s10-4.478 10-10V104h12v246c0 3.309-2.691 6-6 6s-6-2.691-6-6v-14.667c0-5.522-4.477-10-10-10s-10 4.478-10 10V350c0 3.502.7 6.843 1.961 9.896l-22.317 22.317H194c-5.523 0-10 4.478-10 10s4.477 10 10 10h19.787c2.652 0 5.196-1.054 7.071-2.929l25.246-25.246A25.836 25.836 0 0 0 256 376c14.336 0 26-11.663 26-26v-12.029c.394-.292.776-.604 1.133-.961l19.222-19.224H318c5.523 0 10-4.478 10-10s-4.477-10-10-10h-19.787a10.001 10.001 0 0 0-7.071 2.929L282 309.857v-58.474c44.043 11.627 76 52.125 76 98.617z"/>
  <path d="M256.578 491.999L256 492c-5.523 0-10 4.478-10 10s4.477 10 10 10l.672-.001c5.523-.026 9.979-4.524 9.953-10.047s-4.49-9.983-10.047-9.953z"/>
</svg>
